<mxfile host="app.diagrams.net" modified="2023-04-25T11:14:30.515Z" agent="Mozilla/5.0 (Windows NT 10.0; Win64; x64) AppleWebKit/537.36 (KHTML, like Gecko) Chrome/112.0.0.0 Safari/537.36" version="21.2.1" etag="_32OBHZ4ao4MFOvRI_cD" type="github">
  <diagram name="第 1 页" id="tXZeTJExA0IHet5Cv4S0">
    <mxGraphModel>
      <root>
        <mxCell id="0" />
        <mxCell id="1" parent="0" />
      </root>
    </mxGraphModel>
  </diagram>
</mxfile>
